<?xml version="1.0" encoding="utf-8"?>
<!-- Generator: Adobe Illustrator 24.1.2, SVG Export Plug-In . SVG Version: 6.00 Build 0)  -->
<svg version="1.1" id="Layer_1" xmlns="http://www.w3.org/2000/svg" xmlns:xlink="http://www.w3.org/1999/xlink" x="0px" y="0px"
	 viewBox="0 0 24 24" style="enable-background:new 0 0 24 24;" xml:space="preserve">
<style type="text/css">
	.st0{fill:#ED1C24;}
</style>
<circle class="st0" cx="12" cy="7" r="6"/>
<path class="st0" d="M1,22.9c-0.1,0.5,0.3,1.1,0.8,1.1c0.5,0.1,1.1-0.3,1.1-0.8L1,22.9z M21,23.1c0.1,0.5,0.6,0.9,1.1,0.8
	c0.5-0.1,0.9-0.6,0.8-1.1L21,23.1z M3,23.1l0.1-1l-2-0.3l-0.1,1L3,23.1z M9.1,17h5.9v-2H9.1V17z M20.9,22.2l0.1,1l2-0.3l-0.1-1
	L20.9,22.2z M14.9,17c3,0,5.5,2.2,5.9,5.2l2-0.3c-0.6-3.9-3.9-6.9-7.9-6.9V17z M3.1,22.2c0.4-3,3-5.2,5.9-5.2v-2
	c-4,0-7.4,2.9-7.9,6.9L3.1,22.2z"/>
</svg>
