<?xml version="1.0" encoding="utf-8"?>
<!-- Generator: Adobe Illustrator 24.1.2, SVG Export Plug-In . SVG Version: 6.00 Build 0)  -->
<svg version="1.1" id="Layer_1" xmlns="http://www.w3.org/2000/svg" xmlns:xlink="http://www.w3.org/1999/xlink" x="0px" y="0px"
	 viewBox="0 0 124 24" style="enable-background:new 0 0 124 24;" xml:space="preserve">
<style type="text/css">
	.st0{fill:#FFAC00;}
</style>
<path class="st0" d="M12,0l2.7,8.3h8.7l-7.1,5.1l2.7,8.3L12,16.6l-7.1,5.1l2.7-8.3L0.6,8.3h8.7L12,0z"/>
<path class="st0" d="M37,0l2.7,8.3h8.7l-7.1,5.1l2.7,8.3L37,16.6l-7.1,5.1l2.7-8.3l-7.1-5.1h8.7L37,0z"/>
<path class="st0" d="M62,0l2.7,8.3h8.7l-7.1,5.1l2.7,8.3L62,16.6l-7.1,5.1l2.7-8.3l-7.1-5.1h8.7L62,0z"/>
<path class="st0" d="M87,0l2.7,8.3h8.7l-7.1,5.1l2.7,8.3L87,16.6l-7.1,5.1l2.7-8.3l-7.1-5.1h8.7L87,0z"/>
<path class="st0" d="M112,0l2.7,8.3h8.7l-7.1,5.1l2.7,8.3l-7.1-5.1l-7.1,5.1l2.7-8.3l-7.1-5.1h8.7L112,0z"/>
<path class="st0" d="M12,0l2.7,8.3h8.7l-7.1,5.1l2.7,8.3L12,16.6l-7.1,5.1l2.7-8.3L0.6,8.3h8.7L12,0z"/>
<path class="st0" d="M37,0l2.7,8.3h8.7l-7.1,5.1l2.7,8.3L37,16.6l-7.1,5.1l2.7-8.3l-7.1-5.1h8.7L37,0z"/>
<path class="st0" d="M62,0l2.7,8.3h8.7l-7.1,5.1l2.7,8.3L62,16.6l-7.1,5.1l2.7-8.3l-7.1-5.1h8.7L62,0z"/>
<path class="st0" d="M87,0l2.7,8.3h8.7l-7.1,5.1l2.7,8.3L87,16.6l-7.1,5.1l2.7-8.3l-7.1-5.1h8.7L87,0z"/>
<path class="st0" d="M112,0l2.7,8.3h8.7l-7.1,5.1l2.7,8.3l-7.1-5.1l-7.1,5.1l2.7-8.3l-7.1-5.1h8.7L112,0z"/>
</svg>
